# xmcd CD database file
#
# Track frame offsets:
#	150
#	14509
#	28487
#	43461
#	53619
#	67936
#	80913
#	90899
#	101083
#	113982
#	125537
#	139284
#	153208
#	163431
#	175039
#	187724
#	202365
#	215881
#	229597
#	243329
#
# Disc length: 3444 seconds
#
# Revision: 0
# Processed by: cddbd v1.5.1PL2 Copyright (c) Steve Scherf et al.
# Submitted via: CDex 1.51
#
DISCID=240d7214
DTITLE=Peggy Lee - Simply The Best - Disc 1
DYEAR=2004
DGENRE=Jazz
TTITLE0=Black Coffee
TTITLE1=Linger In My Arms A Little Longer Baby
TTITLE2=Baubles Bangles And Beads
TTITLE3=I Ain't Got Nobody
TTITLE4=Stormy Weather
TTITLE5=I Let A Song Go Out Of My Heart
TTITLE6=I Get Ideas
TTITLE7=Yeah Yeah Yeah
TTITLE8=Old Master Painter
TTITLE9=I've Got You Under My Skin
TTITLE10=It's All Over Now
TTITLE11=Chi Baba Chi Baba (My Bambino Go To Sleep)
TTITLE12=Just One Of Those Things
TTITLE13=Laroo Laroo Lili Bolero
TTITLE14=Caramba It's The Samba
TTITLE15=Why Don't You Do Right
TTITLE16=Manana (Is Soon Enough For Me)
TTITLE17=I'll Dance At Your Wedding
TTITLE18=Golden Earrings
TTITLE19=Way You Look Tonight
EXTD=YEAR: 2004
EXTT0=
EXTT1=
EXTT2=
EXTT3=
EXTT4=
EXTT5=
EXTT6=
EXTT7=
EXTT8=
EXTT9=
EXTT10=
EXTT11=
EXTT12=
EXTT13=
EXTT14=
EXTT15=
EXTT16=
EXTT17=
EXTT18=
EXTT19=
PLAYORDER=
